<?xml version="1.0" standalone="no"?>
<!DOCTYPE svg PUBLIC "-//W3C//DTD SVG 20010904//EN"
 "http://www.w3.org/TR/2001/REC-SVG-20010904/DTD/svg10.dtd">
<svg version="1.0" xmlns="http://www.w3.org/2000/svg"
 width="700.000000pt" height="700.000000pt" viewBox="0 0 700.000000 700.000000"
 preserveAspectRatio="xMidYMid meet">
<metadata>
Created by potrace 1.11, written by Peter Selinger 2001-2013
</metadata>
<g transform="translate(0.000000,700.000000) scale(0.100000,-0.100000)"
fill="#000000" stroke="none">
<path d="M2937 6305 c-1 -2 -44 -5 -95 -9 -76 -5 -225 -27 -339 -50 -102 -21
-346 -99 -441 -142 -370 -167 -582 -313 -852 -584 -427 -428 -681 -957 -765
-1595 -13 -94 -17 -170 -17 -335 0 -200 8 -290 47 -515 37 -217 134 -507 242
-729 348 -710 988 -1260 1753 -1504 165 -53 377 -101 510 -117 25 -3 56 -7 70
-10 101 -18 425 -24 580 -11 471 39 920 176 1316 401 109 62 340 223 442 307
140 116 331 304 412 404 8 11 33 42 55 69 22 28 43 52 46 55 3 3 32 43 65 90
309 438 499 922 579 1470 4 29 12 107 20 198 4 34 3 63 -2 63 -4 1 -26 3 -48
4 -102 7 -155 8 -159 4 -2 -2 -7 -45 -10 -95 -4 -50 -9 -102 -11 -115 -2 -13
-11 -71 -20 -129 -103 -654 -458 -1313 -941 -1744 -327 -292 -648 -484 -1034
-617 -215 -74 -418 -118 -685 -148 -77 -9 -470 -6 -550 3 -246 30 -525 99
-735 183 -961 382 -1618 1240 -1718 2243 -9 95 -9 413 1 505 7 64 19 144 32
218 3 15 7 37 9 50 9 50 49 197 77 281 101 302 262 590 463 829 96 114 281
290 380 362 23 16 43 32 46 35 15 15 160 110 169 110 6 0 11 3 11 8 0 4 10 12
23 18 12 6 60 31 107 55 221 117 538 220 750 245 30 3 75 10 100 14 47 9 459
6 496 -3 12 -3 45 -8 75 -12 363 -45 742 -206 1066 -453 94 -71 265 -237 342
-331 125 -154 261 -384 333 -566 60 -150 111 -334 124 -446 3 -30 8 -57 10
-60 5 -9 17 -199 17 -274 0 -78 -12 -255 -17 -264 -2 -3 -7 -28 -10 -56 -21
-160 -83 -357 -173 -545 -146 -308 -375 -578 -643 -758 -91 -62 -91 -62 -195
-117 -505 -268 -1121 -278 -1624 -25 -920 461 -1195 1615 -565 2371 215 258
533 431 859 467 78 9 244 8 317 -2 254 -32 506 -161 684 -348 301 -317 380
-772 198 -1141 -37 -76 -123 -195 -171 -238 -128 -114 -253 -180 -392 -209
-102 -21 -238 -19 -326 4 -149 40 -288 139 -367 260 -144 223 -87 519 118 616
58 27 147 27 191 0 51 -31 63 -65 63 -184 l0 -105 28 4 c50 6 78 23 120 70 83
95 69 247 -34 348 -131 129 -353 138 -529 22 -104 -69 -187 -184 -231 -320
-25 -79 -27 -260 -3 -348 73 -266 265 -465 537 -556 62 -21 79 -25 187 -39
162 -21 345 12 515 95 284 137 493 399 574 718 23 90 30 158 31 280 0 136 -7
194 -40 318 -134 517 -597 903 -1165 972 -61 8 -268 8 -315 1 -16 -2 -50 -7
-75 -10 -76 -11 -255 -60 -315 -86 -113 -49 -150 -67 -215 -105 -425 -250
-701 -668 -784 -1185 -13 -78 -15 -417 -3 -475 2 -11 7 -38 11 -60 43 -239
145 -496 275 -690 212 -315 515 -562 858 -699 87 -35 236 -84 277 -92 11 -2
44 -8 71 -14 84 -17 95 -19 169 -27 91 -10 360 -10 451 0 228 24 460 93 680
202 441 217 786 576 994 1033 56 124 126 331 147 437 42 212 48 278 49 480 0
161 -7 254 -24 355 -19 110 -22 127 -46 220 -203 797 -825 1441 -1630 1685
-120 36 -319 79 -412 89 -29 3 -77 9 -105 12 -49 6 -335 13 -341 9z"/>
</g>
</svg>
